<?xml version="1.0" encoding="iso-8859-1"?>
<!-- Generator: Adobe Illustrator 19.0.0, SVG Export Plug-In . SVG Version: 6.00 Build 0)  -->
<svg version="1.1" id="Capa_1" xmlns="http://www.w3.org/2000/svg" xmlns:xlink="http://www.w3.org/1999/xlink" x="0px" y="0px"
	 viewBox="0 0 511.999 511.999" style="enable-background:new 0 0 511.999 511.999;" xml:space="preserve">
<path style="fill:#34A4B7;" d="M466.97,127.456L261.777,8.987c-3.574-2.064-7.98-2.064-11.554,0L45.027,127.455
	c-3.574,2.064-5.776,5.878-5.776,10.006v236.94c0,4.127,2.202,7.942,5.776,10.005C265.4,511.637,251.477,504.423,255.999,504.423
	c1.996,0,3.989-0.517,5.778-1.549L466.97,384.407c3.576-2.062,5.778-5.878,5.778-10.005v-236.94
	C472.748,133.335,470.546,129.52,466.97,127.456z"/>
<path style="fill:#49B5CE;" d="M466.97,127.456l-53.019-30.611c-59.808,13.267-107.505,109.784-109.448,227.673
	c-0.87,52.765,7.57,101.545,22.473,140.712l139.993-80.825c3.576-2.062,5.778-5.878,5.778-10.005V137.462
	C472.748,133.335,470.546,129.52,466.97,127.456z"/>
<path style="fill:#C44137;" d="M466.97,127.456L261.777,8.987c-3.574-2.064-7.98-2.064-11.554,0L45.027,127.455
	c-1.787,1.032-3.231,2.5-4.227,4.227c0.996,1.726,2.44,3.196,4.227,4.228l205.195,118.468c1.787,1.032,3.785,1.548,5.776,1.548
	c1.996,0,3.989-0.516,5.778-1.548l205.193-118.468c1.785-1.032,3.229-2.5,4.229-4.228
	C470.199,129.956,468.755,128.487,466.97,127.456z"/>
<path style="fill:#E04E4B;" d="M466.97,127.456L261.777,8.987c-3.574-2.064-7.98-2.064-11.554,0L133.064,76.628
	c-5.722,10.113-8.809,20.818-8.809,31.901c0,58.748,86.314,106.955,196.299,111.915L466.97,135.91
	c1.785-1.032,3.229-2.5,4.229-4.228C470.199,129.956,468.755,128.487,466.97,127.456z"/>
<path style="fill:#F7AC16;" d="M45.027,135.909c-1.787-1.032-3.231-2.5-4.227-4.228c-1,1.728-1.55,3.714-1.55,5.778V374.4
	c0,4.127,2.202,7.942,5.776,10.005C265.4,511.637,251.477,504.423,255.999,504.423V255.925c-1.992,0-3.989-0.516-5.776-1.548
	L45.027,135.909z"/>
<path d="M477.675,127.969c-3.276-5.655-4.928-5.78-32.648-21.784c-3.581-2.067-8.157-0.84-10.222,2.739
	c-2.066,3.579-0.84,8.156,2.739,10.222l21.78,12.575l-58.977,34.05c-0.87-0.757,2.523,1.293-57.656-33.451l56.478-32.607
	c0.752-0.434,1.393-0.984,1.929-1.607l14.683,8.477c3.58,2.067,8.156,0.841,10.222-2.739c2.066-3.579,0.84-8.156-2.739-10.222
	L265.52,2.544c-5.874-3.391-13.169-3.391-19.039,0C25.157,130.324,37.879,121.822,34.323,127.972
	c-3.651,6.313-2.555-8.579-2.555,246.466c0,6.78,3.647,13.098,9.518,16.485L246.48,509.391c2.89,1.669,6.181,2.551,9.518,2.551
	c7.287,0-6.238,6.546,214.71-121.018c5.874-3.388,9.523-9.705,9.523-16.487C480.232,119.54,481.327,134.268,477.675,127.969z
	 M335.734,369.261v-65.812l57.28-33.07v65.813L335.734,369.261z M393.014,353.473v65.028l-57.28,33.071v-65.029L393.014,353.473z
	 M111.498,304.432c-4.134,0-7.483,3.351-7.483,7.483v15.959l-57.28-33.071v-65.812l57.28,33.07v23.413
	c0,4.133,3.35,7.483,7.483,7.483c4.134,0,7.483-3.351,7.483-7.483v-14.772l57.284,33.073v65.812l-57.284-33.073v-24.599
	C118.982,307.782,115.632,304.432,111.498,304.432z M182.898,57.344l57.096,32.964l-57.798,33.37l-57.797-33.369l57.84-33.394
	C182.448,57.068,182.668,57.212,182.898,57.344z M393.014,187.287v65.809l-57.28,33.07v-65.809L393.014,187.287z M46.735,145.574
	l57.28,33.07v66.136l-57.28-33.071V145.574z M118.982,187.285l57.284,33.073v66.136l-57.284-33.073
	C118.982,253.42,118.982,187.285,118.982,187.285z M191.233,228.999l55.249,31.898c0.346,0.2,0.699,0.387,1.057,0.565
	c0.114,0.056,0.229,0.105,0.343,0.16c0.211,0.099,0.419,0.202,0.633,0.293v66.293l-57.282-33.072L191.233,228.999L191.233,228.999z
	 M248.516,345.488v65.812l-57.282-33.072v-65.812L248.516,345.488z M263.483,261.907c0.695-0.297,1.378-0.631,2.036-1.011
	l55.248-31.898v65.809l-57.284,33.072V261.907z M258.04,247.932c-1.24,0.715-2.841,0.715-4.075,0.002l-55.763-32.194l56.759-32.769
	l57.798,33.37L258.04,247.932z M183.235,207.1l-57.798-33.37l56.759-32.769l57.798,33.37L183.235,207.1z M197.162,132.319
	l57.798-33.37l57.798,33.37l-57.798,33.37L197.162,132.319z M109.574,98.869c0.87,0.757-2.524-1.293,57.656,33.451
	c-0.508,0.293-56.248,32.465-56.743,32.779l-57.814-33.38L109.574,98.869z M176.266,386.87v64.702l-57.284-33.073v-64.703
	L176.266,386.87z M191.233,459.607v-64.096l57.282,33.072v64.702l-57.312-33.089C191.219,460.001,191.233,459.807,191.233,459.607z
	 M263.483,345.162l57.284-33.072v65.813l-57.284,33.071V345.162z M407.981,261.737l57.284-33.072v65.812l-57.284,33.073V261.737z
	 M465.265,145.573v65.81l-57.284,33.072v-65.809L465.265,145.573z M385.523,174.33l-57.798,33.37l-57.798-33.37l57.798-33.37
	L385.523,174.33z M327.725,123.679l-57.799-33.37l57.096-32.964c0.56-0.323,1.055-0.713,1.496-1.146L386.56,89.71L327.725,123.679z
	 M254.705,15.18c1.094-0.366,2.31-0.263,3.33,0.324l0,0l55.761,32.194l-58.835,33.969L197.163,48.3l56.802-32.794
	C254.201,15.368,254.451,15.265,254.705,15.18z M46.735,374.438v-62.353l57.28,33.07v64.703l-55.247-31.897
	C47.514,377.238,46.735,375.888,46.735,374.438z M263.483,493.286v-65.03l57.284-33.072c0,0.592-0.016,64.422,0.03,65.012
	L263.483,493.286z M463.228,377.962L407.98,409.86v-65.028l57.284-33.072v62.679C465.265,375.888,464.486,377.237,463.228,377.962z"
	/>
<g>
</g>
<g>
</g>
<g>
</g>
<g>
</g>
<g>
</g>
<g>
</g>
<g>
</g>
<g>
</g>
<g>
</g>
<g>
</g>
<g>
</g>
<g>
</g>
<g>
</g>
<g>
</g>
<g>
</g>
</svg>
